<?xml version="1.0" encoding="iso-8859-1"?>
<!-- Generator: Adobe Illustrator 19.0.0, SVG Export Plug-In . SVG Version: 6.00 Build 0)  -->
<svg version="1.1" id="Layer_1" xmlns="http://www.w3.org/2000/svg" xmlns:xlink="http://www.w3.org/1999/xlink" x="0px" y="0px"
	 viewBox="0 0 512 512" style="enable-background:new 0 0 512 512;" xml:space="preserve">
<circle style="fill:#FC6F58;" cx="256" cy="256" r="256"/>
<path style="fill:#F1543F;" d="M508.792,296.541L364.73,152.479L193.236,292.647l-82.342,78.545l140.753,140.753
	c1.45,0.024,2.898,0.055,4.353,0.055C383.588,512,489.36,418.659,508.792,296.541z"/>
<path style="fill:#E6F3FF;" d="M284.379,300.163c27.944,13.584,66.332,76.671,97.24,74.611
	c30.908-2.06,31.925-167.983-10.314-215.673s-93.803-2.72-93.803-2.72h-55.58c0,0-51.564-44.972-93.803,2.72
	s-41.22,213.613-10.314,215.673c30.906,2.06,69.296-61.026,97.24-74.611H284.379z"/>
<path style="fill:#CFDBE6;" d="M371.305,159.101c-42.237-47.69-93.801-2.72-93.801-2.72h-27.248v143.782h34.125
	c27.945,13.584,66.332,76.671,97.24,74.611C412.527,372.714,413.544,206.793,371.305,159.101z"/>
<g>
	<circle style="fill:#B8C9D9;" cx="205.317" cy="256" r="27.789"/>
	<circle style="fill:#B8C9D9;" cx="158.53" cy="183.613" r="20.475"/>
</g>
<circle style="fill:#A9BBC9;" cx="279.169" cy="256" r="20.475"/>
<circle style="fill:#4CDBC4;" cx="335.489" cy="181.82" r="10.636"/>
<circle style="fill:#A9BBC9;" cx="335.489" cy="219.039" r="10.636"/>
<circle style="fill:#FD8469;" cx="354.09" cy="200.421" r="10.636"/>
<circle style="fill:#FF80AA;" cx="316.871" cy="200.421" r="10.636"/>
<g>
</g>
<g>
</g>
<g>
</g>
<g>
</g>
<g>
</g>
<g>
</g>
<g>
</g>
<g>
</g>
<g>
</g>
<g>
</g>
<g>
</g>
<g>
</g>
<g>
</g>
<g>
</g>
<g>
</g>
</svg>
