<?xml version="1.0" encoding="iso-8859-1"?>
<!-- Generator: Adobe Illustrator 19.0.0, SVG Export Plug-In . SVG Version: 6.00 Build 0)  -->
<svg version="1.1" id="Layer_1" xmlns="http://www.w3.org/2000/svg" xmlns:xlink="http://www.w3.org/1999/xlink" x="0px" y="0px"
	 viewBox="0 0 512 512" style="enable-background:new 0 0 512 512;" xml:space="preserve">
<circle style="fill:#00A753;" cx="256" cy="256" r="256"/>
<path style="fill:#007F40;" d="M512,256c0-32.73-6.153-64.021-17.348-92.792L446,114.556h-80.074l-3.499,15.025l-14.614-15.025H66
	v36.153l18.472,19.369L66,174.068v223.377l97.208,97.208C191.979,505.847,223.27,512,256,512C397.385,512,512,397.385,512,256z"/>
<polygon style="fill:#FFF5CB;" points="427.528,262.597 389,269.194 427.528,278.167 446,282.473 446,397.444 149.4,397.444 
	146.581,380.946 140.681,346.514 132.658,380.946 128.816,397.444 66,397.444 66,174.068 84.472,170.078 111.917,164.167 
	84.472,156.123 66,150.708 66,114.556 347.812,114.556 350.631,131.054 355.486,159.396 362.083,131.054 365.926,114.556 
	446,114.556 446,259.431 "/>
<g>
	<polygon style="fill:#FFED97;" points="427.53,262.6 389,269.19 427.53,278.17 446,282.47 446,397.44 256,397.44 256,114.56 
		347.81,114.56 350.63,131.05 355.49,159.4 362.08,131.05 365.93,114.56 446,114.56 446,259.43 	"/>
	<polygon style="fill:#FFED97;" points="427.528,262.597 389,269.194 427.528,278.167 427.528,380.946 146.581,380.946 
		140.681,346.514 132.658,380.946 84.472,380.946 84.472,170.078 111.917,164.167 84.472,156.123 84.472,131.054 350.631,131.054 
		355.486,159.396 362.083,131.054 427.528,131.054 	"/>
</g>
<polygon style="fill:#FFE047;" points="427.53,262.6 389,269.19 427.53,278.17 427.53,380.95 256,380.95 256,131.05 350.63,131.05 
	355.49,159.4 362.08,131.05 427.53,131.05 "/>
<rect x="190.6" y="131.06" style="fill:#FFE670;" width="130.8" height="249.88"/>
<rect x="256" y="131.06" style="fill:#FFD400;" width="65.4" height="249.88"/>
<path style="fill:#E67500;" d="M139.864,232.808l-12.472-2.212c1.218-6.866,2.472-11.274,2.525-11.459l12.177,3.489l-6.089-1.745
	l6.09,1.74C142.083,222.661,140.957,226.641,139.864,232.808z"/>
<g>
	<path style="fill:#C06200;" d="M325.704,356.753l-1.874-12.527c6.671-0.998,12.532-3.146,17.419-6.385l6.997,10.559
		C341.805,352.668,334.22,355.479,325.704,356.753z"/>
	<path style="fill:#C06200;" d="M302.425,356.546c-7.379-1.121-14.803-3.174-22.066-6.103l4.738-11.747
		c6.352,2.561,12.823,4.354,19.23,5.327L302.425,356.546z"/>
</g>
<path style="fill:#E67500;" d="M260.249,339.664c-6.463-4.437-12.271-9.514-17.264-15.09l9.437-8.45
	c4.32,4.824,9.365,9.23,14.997,13.096L260.249,339.664z"/>
<g>
	<path style="fill:#C06200;" d="M267.418,329.221c-4.143-2.844-7.965-5.982-11.418-9.362v16.716c1.384,1.06,2.797,2.093,4.249,3.09
		L267.418,329.221z"/>
	<path style="fill:#C06200;" d="M365.024,331.413l-10.585-6.956c3.49-5.312,5.634-11.111,6.373-17.236l12.576,1.516
		C372.412,316.822,369.599,324.451,365.024,331.413z"/>
</g>
<g>
	<path style="fill:#E67500;" d="M155.53,313.716c-4.658-1.228-8.92-3.667-12.669-7.249c-2.7-2.579-5.132-5.52-7.229-8.741
		l10.615-6.911c1.565,2.403,3.369,4.588,5.364,6.494c2.212,2.114,4.55,3.474,7.148,4.159L155.53,313.716z"/>
	<path style="fill:#E67500;" d="M180.327,311.085l-4.393-11.88c4.01-1.483,8.24-3.426,12.331-5.305
		c2.301-1.058,4.681-2.151,7.031-3.167l5.03,11.624c-2.22,0.961-4.432,1.977-6.774,3.053
		C189.245,307.389,184.792,309.434,180.327,311.085z"/>
	<path style="fill:#E67500;" d="M230.242,306.029c-4.398-7.056-8.794-8.169-12.132-8.35l0.686-12.648
		c9.123,0.495,16.591,5.305,22.196,14.297L230.242,306.029z"/>
</g>
<path style="fill:#C06200;" d="M358.904,288.729c-1.91-5.953-4.959-11.61-9.061-16.811l9.945-7.845
	c5.043,6.394,8.804,13.388,11.178,20.787L358.904,288.729z"/>
<path style="fill:#E67500;" d="M126.953,275.665c-1.244-6.099-1.874-12.804-1.874-19.93c0-0.953,0.011-1.9,0.033-2.837l12.664,0.285
	c-0.019,0.844-0.029,1.695-0.029,2.552c0,6.278,0.545,12.132,1.618,17.4L126.953,275.665z"/>
<g>
	<path style="fill:#C06200;" d="M335.571,258.928c-5.495-3.557-11.434-6.113-17.653-7.597l2.941-12.32
		c7.622,1.819,14.888,4.943,21.595,9.285L335.571,258.928z"/>
	<path style="fill:#C06200;" d="M296.867,249.053c-9.181-1.828-16.63-6.708-21.542-14.114l10.556-7.001
		c3.006,4.532,7.66,7.538,13.459,8.693L296.867,249.053z"/>
	<path style="fill:#C06200;" d="M282.428,211.714l-12.562-1.626c1.091-8.428,4.768-16.24,10.633-22.594l9.306,8.593
		C285.731,200.501,283.18,205.904,282.428,211.714z"/>
	<path style="fill:#C06200;" d="M305.095,186.833l-3.659-12.127c7.057-2.13,15.016-2.934,23.48-2.383l-0.824,12.64
		C317.145,184.512,310.697,185.142,305.095,186.833z"/>
	<path style="fill:#C06200;" d="M353.986,192.122c-3.394-1.312-6.759-2.463-10-3.423l3.595-12.146
		c3.568,1.057,7.259,2.319,10.97,3.754L353.986,192.122z"/>
</g>
<path style="fill:#E67500;" d="M175.755,205.591h-34.569v-38.294c0-8.788,7.191-15.979,15.979-15.979h2.611
	c8.788,0,15.979,7.191,15.979,15.979V205.591z"/>
<path style="fill:#FF8900;" d="M149.63,205.591h-25.333v-19.239c0-6.6,5.4-12,12-12h1.333c6.6,0,12,5.4,12,12L149.63,205.591
	L149.63,205.591z"/>
<polygon style="fill:#FF0335;" points="410.375,173.403 401.139,164.167 386.361,178.945 371.583,164.167 362.347,173.403 
	377.125,188.181 362.347,202.958 371.583,212.194 386.361,197.417 401.139,212.194 410.375,202.958 395.597,188.181 "/>
<path style="fill:#008C4A;" d="M322.675,324.908c0,0-39.019-23.49-26.036-35.042c11.171-9.94,19.129,12.633,19.129,12.633
	s-6.016-26.653,4.655-28.455c10.672-1.802,16.245,10.993,11.747,29.77c0,0,8.682-13.783,18.667-11.085
	C360.824,295.426,350.691,313.946,322.675,324.908z"/>
<g>
</g>
<g>
</g>
<g>
</g>
<g>
</g>
<g>
</g>
<g>
</g>
<g>
</g>
<g>
</g>
<g>
</g>
<g>
</g>
<g>
</g>
<g>
</g>
<g>
</g>
<g>
</g>
<g>
</g>
</svg>
