<?xml version="1.0" encoding="iso-8859-1"?>
<!-- Generator: Adobe Illustrator 19.0.0, SVG Export Plug-In . SVG Version: 6.00 Build 0)  -->
<svg version="1.1" id="Layer_1" xmlns="http://www.w3.org/2000/svg" xmlns:xlink="http://www.w3.org/1999/xlink" x="0px" y="0px"
	 viewBox="0 0 512 512" style="enable-background:new 0 0 512 512;" xml:space="preserve">
<circle style="fill:#FF314F;" cx="256" cy="256" r="256"/>
<path style="fill:#A30F44;" d="M353.806,156.003l-32.871-9.471l-55.53-51.695l-9.978,75.543l-39.052-36.898l-73.576,59.883
	l-12.643,73.151l27.658,85.911L311.21,506.011c98.002-21.545,174.956-99.228,195.417-197.634L353.806,156.003z"/>
<path style="fill:#FFC61B;" d="M256,393.223c-76.521,0-138.774-62.254-138.774-138.774c0-55.16,32.68-105.084,83.258-127.19
	c6.113-2.669,13.222,0.117,15.891,6.223c2.669,6.108-0.117,13.222-6.223,15.891c-41.789,18.263-68.791,59.507-68.791,105.075
	c0,63.212,51.428,114.64,114.64,114.64s114.64-51.428,114.64-114.64c0-45.568-27.002-86.811-68.789-105.075
	c-6.106-2.669-8.892-9.783-6.223-15.891c2.67-6.104,9.78-8.89,15.891-6.223c50.576,22.106,83.256,72.03,83.256,127.19
	C394.774,330.967,332.521,393.223,256,393.223z"/>
<path style="fill:#EAA22F;" d="M311.517,127.257c-6.111-2.667-13.221,0.119-15.891,6.223c-2.669,6.108,0.117,13.222,6.223,15.891
	c41.789,18.265,68.791,59.509,68.791,105.077c0,63.212-51.428,114.64-114.64,114.64c-0.193,0-0.381-0.014-0.574-0.014v24.135
	c0.193,0,0.381,0.014,0.574,0.014c76.521,0,138.774-62.254,138.774-138.774C394.774,199.289,362.094,149.364,311.517,127.257z"/>
<path style="fill:#FEE187;" d="M256,266.516c-6.665,0-12.067-5.403-12.067-12.067V102.4c0-6.665,5.403-12.067,12.067-12.067
	c6.665,0,12.067,5.403,12.067,12.067v152.048C268.067,261.113,262.665,266.516,256,266.516z"/>
<path style="fill:#FFC61B;" d="M256,90.333c-0.193,0-0.383,0.021-0.574,0.029v176.125c0.191,0.009,0.381,0.029,0.574,0.029
	c6.665,0,12.067-5.403,12.067-12.067V102.4C268.067,95.735,262.665,90.333,256,90.333z"/>
<g>
</g>
<g>
</g>
<g>
</g>
<g>
</g>
<g>
</g>
<g>
</g>
<g>
</g>
<g>
</g>
<g>
</g>
<g>
</g>
<g>
</g>
<g>
</g>
<g>
</g>
<g>
</g>
<g>
</g>
</svg>
