<?xml version="1.0" encoding="iso-8859-1"?>
<!-- Generator: Adobe Illustrator 19.0.0, SVG Export Plug-In . SVG Version: 6.00 Build 0)  -->
<svg version="1.1" id="Layer_1" xmlns="http://www.w3.org/2000/svg" xmlns:xlink="http://www.w3.org/1999/xlink" x="0px" y="0px"
	 viewBox="0 0 512 512" style="enable-background:new 0 0 512 512;" xml:space="preserve">
<circle style="fill:#FF7F4F;" cx="256" cy="256" r="256"/>
<path style="fill:#E03A00;" d="M511.998,256c0-23.826-3.267-46.887-9.357-68.773l-75.974-75.974L170.955,234.087l-10.119,177.669
	l100.18,100.18C400.084,509.262,511.998,395.709,511.998,256z"/>
<path style="fill:#FFFFFF;" d="M426.667,258.655c-81.891-32.428-163.781,32.428-245.672,0c0-49.135,0-98.268,0-147.403
	c81.891,32.428,163.781-32.428,245.672,0C426.667,160.385,426.667,209.52,426.667,258.655z"/>
<path style="fill:#C4C4C4;" d="M302.833,111.449v147.403c41.277-8.171,82.556-16.543,123.833-0.198c0-49.135,0-98.268,0-147.403
	C385.389,94.906,344.111,103.277,302.833,111.449z"/>
<g>
	<path style="fill:#FFFFFF;" d="M303.831,258.655L303.831,258.655L303.831,258.655z"/>
	<path style="fill:#FFFFFF;" d="M426.667,258.655L426.667,258.655L426.667,258.655z"/>
</g>
<g>
	<path style="fill:#3F3F3F;" d="M205.562,258.655h-24.567l0,0c8.189,3.243,16.379,5.499,24.567,6.99V258.655z"/>
	<path style="fill:#3F3F3F;" d="M230.129,258.655v9.333c8.189,0.129,16.379-0.322,24.567-1.165v-8.168H230.129z"/>
	<path style="fill:#3F3F3F;" d="M279.264,258.655v4.667c8.189-1.427,16.379-3.044,24.567-4.667l0,0H279.264z"/>
</g>
<g>
	<path style="fill:#212121;" d="M328.397,106.586c-8.189,1.427-16.379,3.044-24.567,4.667h24.567V106.586z"/>
	<path style="fill:#212121;" d="M377.532,111.252v-9.333c-8.189-0.129-16.379,0.322-24.567,1.165v8.168H377.532z"/>
	<path style="fill:#212121;" d="M402.099,111.252h24.567c-8.189-3.243-16.379-5.499-24.567-6.99V111.252z"/>
</g>
<g>
	<path style="fill:#3F3F3F;" d="M205.562,135.82v-17.577c-8.189-1.491-16.379-3.748-24.567-6.99c0,8.189,0,16.379,0,24.567
		L205.562,135.82L205.562,135.82z"/>
	<path style="fill:#3F3F3F;" d="M254.697,119.418c-8.189,0.843-16.379,1.295-24.567,1.165v15.234h24.567V119.418z"/>
	<path style="fill:#3F3F3F;" d="M279.264,135.82h24.567v-24.567c-8.189,1.62-16.379,3.239-24.567,4.667V135.82z"/>
</g>
<g>
	<rect x="328.404" y="111.244" style="fill:#212121;" width="24.567" height="24.567"/>
	<rect x="377.535" y="111.244" style="fill:#212121;" width="24.567" height="24.567"/>
</g>
<g>
	<rect x="205.559" y="135.827" style="fill:#3F3F3F;" width="24.567" height="24.567"/>
	<rect x="254.69" y="135.827" style="fill:#3F3F3F;" width="24.567" height="24.567"/>
</g>
<g>
	<rect x="303.838" y="135.827" style="fill:#212121;" width="24.567" height="24.567"/>
	<rect x="352.97" y="135.827" style="fill:#212121;" width="24.567" height="24.567"/>
	<path style="fill:#212121;" d="M402.099,160.385h24.567c0-8.189,0-16.379,0-24.567h-24.567V160.385z"/>
</g>
<g>
	<path style="fill:#3F3F3F;" d="M205.562,160.385h-24.567c0,8.189,0,16.379,0,24.567h24.567V160.385z"/>
	<rect x="230.124" y="160.392" style="fill:#3F3F3F;" width="24.567" height="24.567"/>
	<rect x="279.273" y="160.392" style="fill:#3F3F3F;" width="24.567" height="24.567"/>
</g>
<g>
	<rect x="328.404" y="160.392" style="fill:#212121;" width="24.567" height="24.567"/>
	<rect x="377.535" y="160.392" style="fill:#212121;" width="24.567" height="24.567"/>
</g>
<g>
	<rect x="205.559" y="184.958" style="fill:#3F3F3F;" width="24.567" height="24.567"/>
	<rect x="254.69" y="184.958" style="fill:#3F3F3F;" width="24.567" height="24.567"/>
</g>
<g>
	<rect x="303.838" y="184.958" style="fill:#212121;" width="24.567" height="24.567"/>
	<rect x="352.97" y="184.958" style="fill:#212121;" width="24.567" height="24.567"/>
	<path style="fill:#212121;" d="M402.099,209.52h24.567c0-8.189,0-16.379,0-24.567h-24.567V209.52z"/>
</g>
<g>
	<path style="fill:#3F3F3F;" d="M205.562,209.52h-24.567c0,8.189,0,16.379,0,24.567h24.567V209.52z"/>
	<rect x="230.124" y="209.523" style="fill:#3F3F3F;" width="24.567" height="24.567"/>
	<rect x="279.273" y="209.523" style="fill:#3F3F3F;" width="24.567" height="24.567"/>
</g>
<g>
	<rect x="328.404" y="209.523" style="fill:#212121;" width="24.567" height="24.567"/>
	<rect x="377.535" y="209.523" style="fill:#212121;" width="24.567" height="24.567"/>
</g>
<g>
	<rect x="205.559" y="234.089" style="fill:#3F3F3F;" width="24.567" height="24.567"/>
	<rect x="254.69" y="234.089" style="fill:#3F3F3F;" width="24.567" height="24.567"/>
</g>
<g>
	<path style="fill:#212121;" d="M328.397,234.087H303.83v24.567l0,0c8.189-1.622,16.377-3.239,24.567-4.667V234.087z"/>
	<path style="fill:#212121;" d="M352.965,250.487c8.189-0.843,16.379-1.295,24.567-1.165v-15.234h-24.567V250.487z"/>
	<path style="fill:#212121;" d="M402.099,251.664c8.189,1.491,16.377,3.748,24.567,6.99l0,0c0-8.189,0-16.379,0-24.567h-24.567
		V251.664z"/>
</g>
<path style="fill:#940030;" d="M168.712,414.618L168.712,414.618c6.784,0,12.283-5.499,12.283-12.283V107.529
	c0-6.784-5.499-12.283-12.283-12.283l0,0c-6.784,0-12.283,5.499-12.283,12.283v294.805
	C156.427,409.119,161.928,414.618,168.712,414.618z"/>
<g>
</g>
<g>
</g>
<g>
</g>
<g>
</g>
<g>
</g>
<g>
</g>
<g>
</g>
<g>
</g>
<g>
</g>
<g>
</g>
<g>
</g>
<g>
</g>
<g>
</g>
<g>
</g>
<g>
</g>
</svg>
