<?xml version="1.0" encoding="iso-8859-1"?>
<!-- Generator: Adobe Illustrator 19.0.0, SVG Export Plug-In . SVG Version: 6.00 Build 0)  -->
<svg version="1.1" id="Layer_1" xmlns="http://www.w3.org/2000/svg" xmlns:xlink="http://www.w3.org/1999/xlink" x="0px" y="0px"
	 viewBox="0 0 297 297" style="enable-background:new 0 0 297 297;" xml:space="preserve">
<g>
	<g>
		<g>
			<g>
				<g>
					<g>
						<circle style="fill:#9ADAD9;" cx="148.5" cy="148.5" r="148.5"/>
					</g>
				</g>
			</g>
		</g>
	</g>
	<path style="fill:#72B7B3;" d="M190.417,67.215c-5.626,4.381-13.263,1.453-19.917,2.285c-2,1-3,3-4,5c-5,29-1,56-4,85
		c-3.918,32.125-29.324,49.515-56.014,63.717l70.955,70.955c60.62-11.977,107.977-60.84,117.711-122.236L190.417,67.215z"/>
	<g>
		<path style="fill:#32373B;" d="M212.398,112.023c-1.604-5.598-4.625-14.168-10.303-26.901
			c-12.094-27.121-31.106-29.32-31.106-29.32h-16.5v105.132c-12.517-4.801-29.264-0.487-41.658,11.907
			c-15.663,15.663-18.437,38.283-6.196,50.523c12.241,12.241,34.861,9.466,50.523-6.196c8.642-8.642,13.351-19.401,13.788-29.367
			h0.043V78.512c8.577-0.67,14.938,2.287,19.011,6.61c9.63,10.221,14.404,22.01,18.861,28.552
			C210.125,115.527,213.016,114.179,212.398,112.023z"/>
	</g>
	<g>
		<path style="fill:#2B2B2B;" d="M212.398,112.023c-1.604-5.598-4.625-14.168-10.303-26.901
			c-12.094-27.121-31.106-29.32-31.106-29.32h-16.5v105.132c-1.854-0.711-3.81-1.198-5.822-1.513v64.586
			c2.973-1.905,5.834-4.182,8.491-6.839c8.642-8.642,13.351-19.401,13.788-29.367h0.043V78.512c8.577-0.67,14.938,2.287,19.011,6.61
			c9.63,10.221,14.404,22.01,18.861,28.552C210.125,115.527,213.016,114.179,212.398,112.023z"/>
	</g>
</g>
<g>
</g>
<g>
</g>
<g>
</g>
<g>
</g>
<g>
</g>
<g>
</g>
<g>
</g>
<g>
</g>
<g>
</g>
<g>
</g>
<g>
</g>
<g>
</g>
<g>
</g>
<g>
</g>
<g>
</g>
</svg>
