<?xml version="1.0" encoding="iso-8859-1"?>
<!-- Generator: Adobe Illustrator 19.0.0, SVG Export Plug-In . SVG Version: 6.00 Build 0)  -->
<svg version="1.1" id="Capa_1" xmlns="http://www.w3.org/2000/svg" xmlns:xlink="http://www.w3.org/1999/xlink" x="0px" y="0px"
	 viewBox="0 0 511.999 511.999" style="enable-background:new 0 0 511.999 511.999;" xml:space="preserve">
<circle style="fill:#CDDF63;" cx="256" cy="255.997" r="255.997"/>
<path style="fill:#A3CE4C;" d="M253.504,98.117h-44.562H164.38v66.333c-21.79,0-38.441,0-41.646,0l-17.007,224.643l121.259,121.259
	c9.526,1.075,19.204,1.647,29.016,1.647c120.358,0,221.298-83.066,248.665-194.993L361.889,174.227h-32.275L253.504,98.117z"/>
<path style="fill:#41ACAF;" d="M295.15,164.451c-9.723,0-162.006,0-172.416,0l-17.007,224.643c20.606,0,171.914,0,206.429,0
	L295.15,164.451z"/>
<path style="fill:#30767A;" d="M208.941,389.094c43.065,0,86.627,0,103.214,0L295.15,164.451c-4.872,0-45.535,0-86.208,0V389.094z"
	/>
<polygon style="fill:#ECF4F6;" points="253.504,179.076 235.554,179.076 235.554,116.069 182.331,116.069 182.331,179.076 
	164.379,179.076 164.379,98.117 253.504,98.117 "/>
<polygon style="fill:#B5DFEC;" points="253.504,179.076 253.504,98.117 208.941,98.117 208.941,116.069 235.554,116.069 
	235.554,179.076 "/>
<path style="fill:#DE5070;" d="M392.641,223.21c-7.18,0-119.63,0-127.318,0l-12.557,165.884c15.216,0,126.947,0,152.433,0
	L392.641,223.21z"/>
<path style="fill:#B52241;" d="M328.982,389.094c31.801,0,63.968,0,76.217,0L392.641,223.21c-3.597,0-33.624,0-63.659,0
	L328.982,389.094L328.982,389.094z"/>
<polygon style="fill:#ECF4F6;" points="361.889,234.01 348.633,234.01 348.633,187.484 309.332,187.484 309.332,234.01 
	296.077,234.01 296.077,174.227 361.889,174.227 "/>
<polygon style="fill:#B5DFEC;" points="361.889,234.01 361.889,174.227 328.982,174.227 328.982,187.484 348.633,187.484 
	348.633,234.01 "/>
<g>
</g>
<g>
</g>
<g>
</g>
<g>
</g>
<g>
</g>
<g>
</g>
<g>
</g>
<g>
</g>
<g>
</g>
<g>
</g>
<g>
</g>
<g>
</g>
<g>
</g>
<g>
</g>
<g>
</g>
</svg>
