<?xml version="1.0" encoding="iso-8859-1"?>
<!-- Generator: Adobe Illustrator 19.0.0, SVG Export Plug-In . SVG Version: 6.00 Build 0)  -->
<svg version="1.1" id="Layer_1" xmlns="http://www.w3.org/2000/svg" xmlns:xlink="http://www.w3.org/1999/xlink" x="0px" y="0px"
	 viewBox="0 0 297 297" style="enable-background:new 0 0 297 297;" xml:space="preserve">
<g>
	<g>
		<g>
			<g>
				<circle style="fill:#5E4534;" cx="148.5" cy="148.5" r="148.5"/>
			</g>
		</g>
	</g>
	<path style="fill:#422E20;" d="M296.908,143.516L178.325,68.162L36.542,175.223L157.5,296.721
		C235.322,292.067,297,227.491,297,148.5C297,146.831,296.962,145.172,296.908,143.516z"/>
	<g>
		<path style="fill:#C3A99A;" d="M71.5,192.5h22l75.028,37.514c5.96,2.98,12.972-1.354,12.972-8.017V75.003
			c0-6.663-7.012-10.997-12.972-8.017L93.5,104.5h-22c-24.301,0-44,19.699-44,44l0,0C27.5,172.801,47.199,192.5,71.5,192.5z"/>
	</g>
	<g>
		<path style="fill:#A08475;" d="M168.528,66.986l-19.861,9.931v143.167l19.861,9.931c5.96,2.98,12.972-1.354,12.972-8.017V75.003
			C181.5,68.34,174.488,64.006,168.528,66.986z"/>
	</g>
	<g>
		<path style="fill:#D95459;" d="M93.5,104.5h-22c-24.301,0-44,19.699-44,44l0,0c0,24.301,19.699,44,44,44h22V104.5z"/>
	</g>
	<g>
		<path style="fill:#ECA684;" d="M242,205.698c-1.663,0-3.327-0.635-4.597-1.903c-2.538-2.539-2.538-6.654,0-9.192
			c25.421-25.421,25.421-66.784,0-92.205c-2.538-2.538-2.538-6.653,0-9.192c2.539-2.537,6.654-2.537,9.193,0
			c30.489,30.49,30.489,80.1,0,110.59C245.327,205.063,243.663,205.698,242,205.698z"/>
	</g>
	<g>
		<path style="fill:#ECA684;" d="M219.4,181.6c-1.279,0-2.56-0.488-3.535-1.465c-1.953-1.952-1.953-5.118,0-7.07
			c13.544-13.545,13.544-35.584,0-49.129c-1.953-1.952-1.953-5.118,0-7.07c1.951-1.953,5.119-1.953,7.07,0
			c17.444,17.443,17.444,45.826,0,63.27C221.96,181.111,220.68,181.6,219.4,181.6z"/>
	</g>
</g>
<g>
</g>
<g>
</g>
<g>
</g>
<g>
</g>
<g>
</g>
<g>
</g>
<g>
</g>
<g>
</g>
<g>
</g>
<g>
</g>
<g>
</g>
<g>
</g>
<g>
</g>
<g>
</g>
<g>
</g>
</svg>
