<?xml version="1.0" encoding="iso-8859-1"?>
<!-- Generator: Adobe Illustrator 19.0.0, SVG Export Plug-In . SVG Version: 6.00 Build 0)  -->
<svg version="1.1" id="Layer_1" xmlns="http://www.w3.org/2000/svg" xmlns:xlink="http://www.w3.org/1999/xlink" x="0px" y="0px"
	 viewBox="0 0 297 297" style="enable-background:new 0 0 297 297;" xml:space="preserve">
<g>
	<g>
		<g>
			<g>
				<circle style="fill:#5E4534;" cx="148.5" cy="148.5" r="148.5"/>
			</g>
		</g>
	</g>
	<path style="fill:#422E20;" d="M296.988,147.544l-119.715-80.15L41.346,180.566L157.5,296.721
		C235.322,292.067,297,227.491,297,148.5C297,148.181,296.99,147.864,296.988,147.544z"/>
	<g>
		<path style="fill:#C3A99A;" d="M71.5,192.5h22l75.028,37.514c5.96,2.98,12.972-1.354,12.972-8.017V75.003
			c0-6.663-7.012-10.997-12.972-8.017L93.5,104.5h-22c-24.301,0-44,19.699-44,44l0,0C27.5,172.801,47.199,192.5,71.5,192.5z"/>
	</g>
	<g>
		<path style="fill:#A08475;" d="M168.528,66.986l-20.361,10.181v142.667l20.361,10.181c5.96,2.98,12.972-1.354,12.972-8.017V75.003
			C181.5,68.34,174.488,64.006,168.528,66.986z"/>
	</g>
	<g>
		<path style="fill:#D95459;" d="M93.5,104.5h-22c-24.301,0-44,19.699-44,44l0,0c0,24.301,19.699,44,44,44h22V104.5z"/>
	</g>
	<g>
		<path style="fill:#ECA684;" d="M214.5,179.75c-1.663,0-3.327-0.635-4.597-1.903c-2.538-2.539-2.538-6.654,0-9.193l49.5-49.5
			c2.539-2.537,6.654-2.537,9.193,0c2.538,2.539,2.538,6.654,0,9.193l-49.5,49.5C217.827,179.115,216.163,179.75,214.5,179.75z"/>
	</g>
	<path style="fill:#ECA684;" d="M268.597,168.653l-49.5-49.5c-2.539-2.537-6.654-2.537-9.193,0c-2.538,2.539-2.538,6.654,0,9.193
		l49.5,49.5c1.27,1.269,2.934,1.903,4.597,1.903s3.327-0.635,4.597-1.903C271.135,175.308,271.135,171.192,268.597,168.653z"/>
</g>
<g>
</g>
<g>
</g>
<g>
</g>
<g>
</g>
<g>
</g>
<g>
</g>
<g>
</g>
<g>
</g>
<g>
</g>
<g>
</g>
<g>
</g>
<g>
</g>
<g>
</g>
<g>
</g>
<g>
</g>
</svg>
